# xmcd CD database file
#
# Track frame offsets:
#	183
#	14293
#	31765
#	46420
#	59565
#	72485
#	85133
#	98195
#	112908
#	127388
#	140565
#	156255
#	171865
#	187318
#	198705
#	211933
#	226773
#	242405
#	255365
#	269738
#	284293
#	295193
#	305433
#	318118
#
# Disc length: 4415 seconds
#
# Revision: 0
# Processed by: cddbd v1.5.1PL0 Copyright (c) Steve Scherf et al.
# Submitted via: CDex 1.51
#
DISCID=66113d18
DTITLE=I 3 Jelly Roll Morton - Mr. Jelly Roll
DYEAR=1991
DGENRE=Jazz
TTITLE0=Mr. Jelly Roll
TTITLE1=Stratford Huntch
TTITLE2=Midnight Mama
TTITLE3=Mamamita
TTITLE4=Tia Juana
TTITLE5=Tom Cat
TTITLE6=King Porter Stomp
TTITLE7=Black bottom Stomp
TTITLE8=The Chant
TTITLE9=Grandpa's Spells
TTITLE10=Doctor Jazz
TTITLE11=The Pearls
TTITLE12=Wolverine Blues
TTITLE13=Georgia Swing
TTITLE14=Kansas City Stomps
TTITLE15=Shoe shiner's drag
TTITLE16=Mournful Serenade
TTITLE17=Freakish
TTITLE18=Oh, Dindn't He Ramble
TTITLE19=I Thought I Herad Buddy Bolden Say
TTITLE20=Cimax Rag
TTITLE21=Ballin' the Jack
TTITLE22=Mamieìs Blues
TTITLE23=Swinging the Elks
EXTD=YEAR: 1991
EXTT0=
EXTT1=
EXTT2=
EXTT3=
EXTT4=
EXTT5=
EXTT6=
EXTT7=
EXTT8=
EXTT9=
EXTT10=
EXTT11=
EXTT12=
EXTT13=
EXTT14=
EXTT15=
EXTT16=
EXTT17=
EXTT18=
EXTT19=
EXTT20=
EXTT21=
EXTT22=
EXTT23=
PLAYORDER=
